<svg width="618" height="252" viewBox="0 0 618 252" fill="none" xmlns="http://www.w3.org/2000/svg">
<g clip-path="url(#clip0_23_149)">
<path d="M1070.94 435.522C1066.01 424.017 962.918 402.652 844.472 388.409C904.243 384.026 954.692 371.426 967.304 348.965C971.143 342.391 970.595 336.365 966.756 330.887C956.337 316.643 916.855 305.687 837.343 313.357C943.177 275.557 1008.98 209.817 1017.75 167.635C1021.04 152.844 1017.21 141.339 1006.79 134.217C987.045 120.522 947.564 127.096 893.276 151.2C950.305 111.209 949.209 104.635 949.209 100.8C948.66 98.6087 947.564 96.9652 945.37 95.8696C929.468 89.2957 808.28 155.035 710.673 226.8C755.638 166.539 764.412 102.443 752.896 71.2174C747.413 55.3304 737.542 46.5652 724.93 46.5652H723.833C706.834 46.5652 687.093 61.9044 667.352 90.3913C685.448 41.6348 683.255 38.8957 681.61 36.7044C679.965 35.0609 678.32 34.5131 676.126 34.5131C673.933 35.0609 667.901 36.1565 636.644 105.73C622.935 135.861 609.775 168.183 598.259 199.409C599.904 117.783 554.391 35.0609 519.844 9.31306C503.941 -3.28695 492.974 -1.09564 486.942 3.28697C472.685 12.6 470.492 41.6348 474.33 76.1478C450.202 19.1739 424.978 6.57392 409.624 5.47827C391.528 3.83479 374.529 16.9826 364.11 40.5391C344.918 84.3652 348.208 152.844 385.496 213.104C346.563 178.591 314.209 151.2 295.017 135.313C230.311 81.6261 227.02 82.7217 223.73 83.2696C222.085 83.8174 220.988 85.4609 220.44 87.1044C219.892 89.8435 219.343 92.5826 265.954 133.67C224.827 109.565 193.571 100.252 176.023 108.47C167.798 112.304 163.411 120.522 163.411 130.93C164.508 160.513 205.086 215.844 287.888 264.052C202.344 238.852 138.735 236.113 122.284 250.904C118.445 254.191 116.8 259.122 118.445 263.504C122.832 279.391 159.572 296.922 218.247 312.809C101.995 305.139 18.6442 322.67 2.74181 344.035C-0.548337 348.965 -1.0967 353.896 1.6451 358.826C9.32212 373.07 44.9654 382.383 102.543 386.217C61.4162 390.6 59.7711 393.887 58.6744 396.078C58.126 397.722 58.126 399.913 59.2227 401.557C65.2547 409.774 141.477 409.774 186.99 409.226C237.988 408.13 288.437 405.939 332.854 402.104C289.533 417.444 253.342 439.904 246.213 466.2C244.02 475.513 246.213 483.73 253.342 489.209C259.374 494.139 280.76 504.548 338.337 483.73C268.696 535.226 233.601 592.2 235.794 619.043C236.343 626.713 240.729 632.739 247.31 634.93C264.309 641.504 295.565 625.07 337.241 590.009C317.5 619.043 310.919 640.957 318.048 654.652C323.532 665.061 336.144 669.991 354.788 667.252C404.689 660.13 482.556 606.991 515.457 533.035C519.844 617.4 582.905 705.6 633.354 734.087C644.321 740.661 653.095 742.852 660.224 742.852C667.352 742.852 672.288 740.113 675.578 737.374C687.642 726.417 688.19 701.217 677.771 662.87C696.964 694.096 713.963 709.435 727.672 707.791C734.8 707.243 744.671 701.765 749.606 679.852C760.573 628.904 738.091 512.765 682.158 450.313C757.831 484.278 838.44 493.591 854.891 482.087C858.181 479.896 859.826 476.609 859.278 473.322C858.181 466.748 848.311 459.078 829.666 450.313C880.115 460.722 922.339 466.748 948.112 469.487C971.691 472.226 1050.11 480.444 1061.07 469.487C1062.72 467.296 1063.27 464.557 1062.17 462.365C1060.53 456.887 1045.72 450.313 1017.21 442.643C1066.01 447.026 1068.75 443.191 1070.4 441C1071.49 439.357 1072.04 437.165 1070.94 435.522Z" fill="#1ED760"/>
</g>
<defs>
<clipPath id="clip0_23_149">
<rect width="618" height="252" fill="white"/>
</clipPath>
</defs>
</svg>
