<svg width="188" height="641" viewBox="0 0 188 641" fill="none" xmlns="http://www.w3.org/2000/svg">
<path d="M182.234 208.648C174.481 201.849 90.2463 222.575 -2.87676 254.046C40.0089 229.565 73.0466 202.286 74.4513 181.113C74.9719 174.864 72.4251 170.58 67.6265 167.871C54.824 160.983 21.5792 166.859 -34.8176 200.793C30.4545 135.118 56.0459 62.8901 47.5962 28.4215C44.7922 16.2592 37.8546 9.07129 27.58 7.47741C8.04068 4.3074 -18.9816 23.2128 -50.7896 60.4054C-22.5822 10.4309 -25.7311 5.9341 -27.0923 3.08381C-28.2778 1.64976 -29.6766 0.81765 -31.6964 0.782126C-45.8538 1.54254 -112.625 93.436 -159.725 181.436C-147.682 120.679 -163.91 69.9231 -183.556 50.8025C-193.273 40.9413 -203.723 37.9311 -213.1 42.4095L-213.916 42.7989C-226.555 48.835 -235.788 67.2458 -240.354 95.429C-244.206 52.764 -246.809 51.5069 -248.81 50.4624C-250.617 49.8249 -252.034 50.0019 -253.665 50.7808C-255.102 51.9668 -259.198 54.923 -257.742 117.734C-257.24 144.997 -255.552 173.694 -253.03 200.992C-280.781 139.738 -343.984 94.4139 -378.81 87.543C-395.106 83.8244 -402.483 89.3473 -405.412 94.7466C-412.707 106.731 -404.032 129.091 -388.927 153.381C-427.09 119.601 -450.318 119.192 -462.123 123.83C-476.161 129.034 -484.133 144.842 -483.518 166.051C-482.232 205.44 -455.478 255.17 -406.363 286.72C-447.562 274.892 -481.34 266.021 -501.25 261.027C-568.417 244.099 -570.474 246.082 -572.726 247.657C-573.755 248.648 -573.987 250.259 -573.811 251.676C-573.247 253.906 -572.682 256.137 -523.442 270.125C-562.577 266.813 -589.123 270.989 -599.253 283.328C-604.007 289.099 -604.352 296.764 -600.658 304.501C-589.342 326.099 -539.53 352.816 -460.853 359.247C-533.402 370.891 -581.669 391.442 -588.651 408.277C-590.338 412.083 -589.811 416.332 -587.032 419.006C-578.131 429.256 -544.591 429.241 -495.326 420.215C-584.485 455.793 -640.235 498.419 -644.475 519.946C-645.172 524.779 -643.829 528.638 -640.041 531.329C-629.277 539.19 -599.469 533.456 -555.298 515.862C-584.321 533.723 -584.377 536.75 -584.415 538.768C-584.239 540.184 -583.461 541.813 -582.063 542.645C-574.661 546.611 -517.988 519.546 -484.342 502.978C-446.813 484.055 -410.081 464.513 -378.417 445.891C-405.182 472.675 -424.118 502.22 -420.085 524.296C-418.41 531.997 -413.862 537.326 -406.617 538.867C-400.382 540.39 -380.786 540.532 -345.365 504.615C-378.867 567.618 -384.737 622.427 -373.578 641.6C-370.448 647.106 -365.047 650.028 -359.377 649.32C-344.404 648.17 -326.998 624.856 -308.456 583.998C-312.828 612.588 -309.942 631.212 -299.78 638.861C-292.009 644.65 -280.881 643.836 -267.991 635.18C-233.416 612.168 -194.383 545.022 -196.171 478.37C-162.963 539.518 -84.768 582.683 -37.1461 585.943C-26.6583 586.935 -19.3569 585.449 -14.0566 582.918C-8.75621 580.386 -6.05905 576.598 -4.58504 573.394C0.495634 560.966 -8.04165 542.041 -29.4003 517.238C-4.04606 533.632 -139.61 484.459 -130 478.37C-124.894 475.431 -13.8912 499.04 -18 481C-27.9301 439.238 -37.8324 384.251 -101.588 357.692C-33.2663 356.068 29.9741 334.367 38.122 319.975C39.7905 317.178 39.8469 314.151 38.2725 311.902C35.1236 307.405 25.0622 305.21 8.08848 305.315C49.2932 295.138 82.8266 284.624 102.962 277.509C121.466 271.172 182.686 249.436 186.952 237.398C187.397 235.185 186.832 232.955 185.239 231.715C182.071 228.228 168.73 228.599 144.806 233.023C182.648 218.951 183.326 215.127 183.771 212.914C184.003 211.303 183.633 209.48 182.234 208.648Z" fill="#1ED760"/>
</svg>
